<svg width="384" height="352" viewBox="0 0 384 352" fill="none" xmlns="http://www.w3.org/2000/svg">
<g clip-path="url(#clip0_37_456)">
<path d="M0.5 311.99C0.5 226.91 0.5 141.83 0.5 56.7403C0.76 56.2503 1.15 55.7803 1.26 55.2503C3.12 45.5903 7.04 36.8803 14.19 30.0703C24.33 20.4103 36.54 15.8703 50.64 15.9303C84.07 16.0703 117.5 15.9703 150.94 15.9803C152.1 15.9803 153.25 16.1003 155.28 16.2103C140.48 25.0503 126.18 32.9803 112.58 41.9503C104.91 47.0103 97.14 48.5003 88.28 48.2003C75.82 47.7803 63.33 48.0803 50.86 48.1103C49 48.1103 47.11 48.1803 45.28 48.4903C36.13 50.0303 32.25 57.4903 32.15 63.7603C32.03 70.5603 36.85 77.5403 44.62 79.4703C45.73 79.7503 47.12 78.7503 48.34 78.8303C50.08 78.9603 51.79 79.8803 53.52 79.8803C141.22 79.9403 228.91 79.9203 316.61 79.9603C319.42 79.9603 322.25 80.3003 325.05 80.6903C339.45 82.7003 350.53 94.4903 351.45 109.01C352.17 120.31 351.74 131.68 351.8 143.02C351.8 143.22 351.55 143.42 351.23 143.89C339.09 143.89 326.76 143.76 314.43 143.95C308.76 144.04 302.94 144.04 297.47 145.29C281.02 149.04 266.96 156.86 256.17 170.34C247.04 181.75 241.52 194.62 240.24 208.97C239.57 216.47 240.1 224.39 241.79 231.72C246.75 253.3 259.64 269.14 279.15 279.54C280.89 280.47 283.48 280.03 284.98 281.16C291.27 285.88 298.56 287.02 305.96 287.19C319.92 287.51 333.9 287.33 347.87 287.36C349.09 287.36 350.3 287.36 351.76 287.36C351.76 298.66 351.86 309.61 351.69 320.55C351.65 323.31 350.95 326.12 350.16 328.79C346.22 341.94 333.94 351.66 317.66 351.63C228.22 351.49 138.77 351.57 49.33 351.54C46.4 351.54 43.44 351.36 40.56 350.87C26.95 348.56 16.29 341.71 8.47 330.23C4.63 324.6 2.46 318.36 0.5 311.98L0.5 311.99Z" fill="black"/>
<path d="M383.75 215.93C383.75 227.28 383.64 238.63 383.8 249.98C383.87 254.89 381.76 258.68 378.56 261.98C377.75 262.81 376.16 263.24 374.93 263.25C353.74 263.44 332.54 263.39 311.35 263.73C303.19 263.86 295.46 262.05 288.41 258.51C284 256.3 280.23 252.42 276.83 248.7C271.54 242.91 267.5 236.25 265.55 228.5C261.82 213.66 263.87 199.88 272.99 187.35C280.33 177.26 290.3 171.28 302.35 168.7C305.82 167.96 309.46 167.69 313.02 167.67C331.85 167.57 350.69 167.69 369.52 167.6C378.77 167.56 383.58 172.83 383.71 181.89C383.88 193.24 383.75 204.59 383.75 215.94V215.93ZM311.54 231.16C320.7 232.48 327.95 222.45 327.69 215.52C327.35 206.8 319.96 199.26 311.04 199.8C301.9 200.35 295.86 207.05 295.62 215.74C295.42 223.28 302.23 232.29 311.54 231.15V231.16Z" fill="black"/>
<path d="M122.96 63.3802C127.83 60.4202 132.7 57.4502 137.58 54.5002C159.84 41.0802 182.09 27.6702 204.36 14.2702C210.75 10.4302 217.21 6.69023 223.59 2.84023C230.87 -1.55977 239.38 0.230232 243.76 8.18023C253.98 26.7402 265.04 44.8302 275.75 63.1202C275.85 63.3002 275.76 63.5902 275.76 63.9902H123.23C123.14 63.7802 123.05 63.5802 122.97 63.3702L122.96 63.3802Z" fill="black"/>
<path d="M303.19 63.1704C294.34 47.9704 285.5 32.7604 276.26 16.9004C278.49 17.2804 280.17 17.3304 281.67 17.8604C291.8 21.4304 301.19 28.9004 302.82 41.9804C303.69 48.9504 303.64 56.0404 304.01 63.0804C303.74 63.1104 303.46 63.1504 303.19 63.1804V63.1704Z" fill="black"/>
</g>
<defs>
<clipPath id="clip0_37_456">
<rect width="383.3" height="351.14" fill="white" transform="translate(0.5 0.5)"/>
</clipPath>
</defs>
</svg>
