<svg width="161" height="155" viewBox="0 0 161 155" fill="none" xmlns="http://www.w3.org/2000/svg">
<g clip-path="url(#clip0_37_450)">
<path d="M80.7598 0.539777C87.0098 0.539777 93.2598 0.539777 99.4998 0.539777C101.83 0.539777 103.31 2.01978 103.31 4.32978C103.35 51.1298 103.39 97.9198 103.43 144.72C103.43 146.62 103.3 148.52 103.33 150.42C103.36 153.02 101.99 154.49 99.2998 154.51C91.0098 154.59 82.7298 154.59 74.4398 154.61C71.2298 154.61 68.0298 154.61 64.8198 154.6C63.5998 154.6 62.3798 154.5 61.1598 154.51C58.7698 154.51 58.0198 152.76 57.9298 151.23C57.8198 149.45 57.8598 147.67 57.8598 145.89C57.8598 98.7598 57.8598 51.6198 57.8398 4.48978C57.8398 2.03978 59.2298 0.539777 61.7698 0.519777C68.0998 0.469777 74.4298 0.509777 80.7598 0.509777C80.7598 0.519777 80.7598 0.529777 80.7598 0.539777Z" fill="black"/>
<path d="M46.3999 90.4799C46.3999 108.1 46.3999 125.72 46.3999 143.35C46.3999 145.83 46.3499 148.32 46.3199 150.8C46.2899 153.3 44.1499 155.05 41.6499 154.66C40.9599 154.55 40.2399 154.63 39.5299 154.63C29.4099 154.63 19.2799 154.63 9.1599 154.63C7.3499 154.63 5.5399 154.65 3.7399 154.46C3.0499 154.39 2.2599 153.91 1.7899 153.38C0.8699 152.33 0.3999 151.12 0.5099 149.58C0.7399 146.54 0.7299 143.48 0.7299 140.43C0.7399 104.52 0.7299 68.6199 0.7399 32.7099C0.7399 31.5499 0.7099 30.3799 0.8399 29.2299C1.0399 27.5599 2.2299 26.5199 3.9299 26.4299C5.6699 26.3399 7.4199 26.2899 9.1699 26.2799C18.9599 26.2699 28.7499 26.2599 38.5399 26.2999C40.2599 26.2999 41.9899 26.4799 43.7099 26.6799C45.1399 26.8399 46.2899 28.4499 46.2999 30.1599C46.3299 41.7699 46.3699 53.3699 46.3799 64.9799C46.3899 73.4799 46.3799 81.9799 46.3799 90.4799H46.3999Z" fill="black"/>
<path d="M114.88 113.37C114.88 102.47 114.88 91.5698 114.88 80.6598C114.88 79.0898 114.83 77.5098 114.83 75.9398C114.83 74.0498 116.42 72.4398 118.3 72.4398C130.33 72.3798 142.36 72.3198 154.39 72.2998C155.61 72.2998 156.86 72.4398 158.05 72.7098C159.6 73.0598 160.33 74.0998 160.34 75.6898C160.38 98.6898 160.42 121.69 160.45 144.69C160.45 146.84 160.36 148.99 160.34 151.14C160.32 153 158.8 154.55 156.9 154.54C153.49 154.51 150.08 154.39 146.68 154.38C139.02 154.35 131.35 154.36 123.69 154.38C122.03 154.38 120.38 154.53 118.72 154.54C116.07 154.56 114.87 153.39 114.86 150.68C114.8 138.25 114.83 125.81 114.83 113.38C114.85 113.38 114.87 113.38 114.89 113.38L114.88 113.37Z" fill="black"/>
</g>
<defs>
<clipPath id="clip0_37_450">
<rect width="159.93" height="154.21" fill="white" transform="translate(0.5 0.5)"/>
</clipPath>
</defs>
</svg>
