<svg width="385" height="385" viewBox="0 0 385 385" fill="none" xmlns="http://www.w3.org/2000/svg">
<g clip-path="url(#clip0_37_447)">
<path d="M235.54 256.71C219.49 256.71 204.02 256.71 188.56 256.71C177.08 256.71 165.6 256.94 154.13 256.6C149.43 256.46 148.74 258.57 149.14 262.32C149.47 265.42 149.94 268.53 149.95 271.63C150.01 301.46 149.64 331.3 150.16 361.12C150.39 374.16 140.33 385.45 126.6 384.83C116.62 384.38 106.6 384.74 96.6 384.74C83.29 384.74 69.98 384.74 56.67 384.74C44.86 384.74 33.04 384.52 21.24 384.8C10.71 385.05 0.460018 374.38 0.630018 364.13C0.910018 347.99 0.700018 331.85 0.700018 315.7C0.700018 303.56 0.700018 291.42 0.700018 279.27C0.700018 265.46 0.700018 251.65 0.700018 237.84C0.700018 224.86 0.700018 211.89 0.700018 198.91C0.700018 184.93 1.18002 170.94 0.540018 156.99C0.0800182 146.98 5.09002 140.5 12.1 134.95C26.68 123.41 41.47 112.14 56.16 100.74C69.81 90.14 83.42 79.5 97.07 68.91C110.21 58.71 123.36 48.53 136.53 38.37C151.39 26.91 166.24 15.44 181.15 4.05002C187.18 -0.559976 197.04 -0.799976 203.59 4.05002C216.55 13.65 229.26 23.6 242.03 33.44C253.39 42.19 264.73 50.96 276.04 59.78C289.03 69.92 301.95 80.15 314.94 90.29C325.86 98.81 336.83 107.26 347.79 115.73C357.6 123.32 367.5 130.79 377.19 138.52C382.64 142.87 384.71 149.09 384.78 155.8C385.54 224.39 383.78 293.05 384.86 361.61C385.08 375.34 374.52 385.29 361.54 384.76C350.97 384.33 340.4 383.86 329.82 383.86C318.91 383.86 308.01 384.57 297.1 384.69C283.46 384.85 269.81 384.76 256.17 384.71C245.18 384.67 235.85 376.16 235.76 365.2C235.49 332.2 235.6 299.21 235.56 266.21C235.56 263.22 235.56 260.22 235.56 256.7L235.54 256.71Z" fill="black"/>
</g>
<defs>
<clipPath id="clip0_37_447">
<rect width="384.47" height="384.34" fill="white" transform="translate(0.5 0.5)"/>
</clipPath>
</defs>
</svg>
