<svg width="350" height="365" viewBox="0 0 350 365" fill="none" xmlns="http://www.w3.org/2000/svg">
<g clip-path="url(#clip0_37_444)">
<path d="M349.64 127.96V131.69C349.31 131.94 349.23 132.33 349.12 132.69C348.52 134.59 347.6 136.31 346.07 137.61C341.16 141.8 336.22 145.95 331.3 150.12C325.13 155.34 318.97 160.57 312.79 165.78C306.91 170.73 304.18 177 304.86 184.69C305.36 190.34 307.91 194.99 312.12 198.69C316.29 202.37 320.59 205.91 324.84 209.5C331.4 215.04 337.96 220.57 344.55 226.08C346.49 227.7 348.18 229.48 348.99 231.94C349.15 232.44 349.18 233 349.64 233.37V237.1C349.4 237.3 349.31 237.58 349.21 237.86C347.37 243.46 345.32 248.98 342.99 254.4C340.13 261.05 336.88 267.5 333.23 273.74C329.61 279.93 325.69 285.92 321.32 291.62C317.86 296.14 314.33 300.59 310.39 304.7C307.29 307.93 303.49 308.51 299.35 307.39C297.44 306.87 295.59 306.12 293.73 305.46C286.26 302.79 278.79 300.1 271.32 297.42C266.83 295.82 262.35 294.18 257.83 292.65C251.8 290.61 245.87 291 240.29 294.06C234.36 297.31 230.81 302.42 229.47 309.04C228.91 311.8 228.42 314.57 227.92 317.34C225.87 328.59 223.83 339.84 221.77 351.08C220.76 356.56 217.77 359.59 212.32 360.68C203.07 362.54 193.75 363.77 184.32 364.21C183.93 364.23 183.55 364.25 183.26 364.56H167.08C166.79 364.24 166.41 364.22 166.02 364.21C162.26 364.12 158.52 363.7 154.78 363.32C148.97 362.73 143.22 361.77 137.49 360.61C132.45 359.59 129.34 356.39 128.41 351.36C128.16 350.02 127.95 348.67 127.7 347.33C125.44 334.98 123.16 322.63 120.91 310.27C120.62 308.69 120.27 307.14 119.74 305.63C116.55 296.53 107.21 290.3 96.72 291.61C94.65 291.87 92.68 292.51 90.73 293.21C84.65 295.39 78.56 297.53 72.48 299.69C65.28 302.25 58.09 304.84 50.89 307.38C48.86 308.1 46.75 308.04 44.66 307.6C42.02 307.05 40.16 305.3 38.46 303.37C33.67 297.95 29.16 292.31 25.01 286.38C20.71 280.23 16.78 273.85 13.28 267.22C8.69999 258.54 4.77999 249.56 1.72999 240.21C1.38999 239.15 1.15999 238.04 0.49999 237.09V233.36C0.82999 233.11 0.90999 232.72 1.01999 232.36C1.69999 230.22 2.84999 228.42 4.59999 226.97C8.19999 223.98 11.74 220.93 15.31 217.91C22.5 211.83 29.65 205.71 36.88 199.69C42.87 194.71 45.92 188.49 45.28 180.63C44.81 174.88 42.3 170.13 38.01 166.36C33.83 162.69 29.54 159.14 25.29 155.55C18.73 150.01 12.16 144.48 5.57999 138.97C3.64999 137.35 1.92999 135.59 1.13999 133.11C0.97999 132.61 0.94999 132.05 0.48999 131.68V127.95C1.27999 126.55 1.66999 124.99 2.15999 123.48C3.41999 119.65 4.86999 115.89 6.44999 112.19C8.86999 106.49 11.56 100.92 14.55 95.4902C18.12 89.0302 22.02 82.7802 26.32 76.7802C29.69 72.0802 33.28 67.5602 37.09 63.2202C38.4 61.7302 39.62 60.1402 41.26 59.0002C44.53 56.7302 48.06 56.6702 51.69 57.9502C58.95 60.5202 66.19 63.1302 73.44 65.7102C79.47 67.8502 85.51 69.9402 91.53 72.1202C94.21 73.0902 96.94 73.5702 99.79 73.5502C108.86 73.4802 116.93 67.6802 119.81 59.0602C121.08 55.2502 121.5 51.2502 122.23 47.3202C124.36 36.0002 126.33 24.6502 128.46 13.3202C129.34 8.66021 132.21 5.66022 136.85 4.57022C140.42 3.73022 144.05 3.12021 147.69 2.61021C153.82 1.75021 159.96 1.01021 166.16 0.810215C166.5 0.800215 166.81 0.720215 167.04 0.470215H183.22C183.48 0.760215 183.83 0.810215 184.19 0.820215C188.99 0.950215 193.75 1.55021 198.52 2.09021C203.53 2.66021 208.5 3.49022 213.4 4.63022C217.89 5.68022 220.71 8.65021 221.57 13.1702C224.06 26.2902 226.42 39.4402 228.82 52.5802C229.29 55.1702 229.68 57.7702 230.68 60.2502C234.21 68.9602 243.28 74.6902 253.39 73.4302C255.41 73.1802 257.31 72.5602 259.21 71.8802C265.32 69.6902 271.43 67.5502 277.54 65.3702C284.77 62.8002 291.98 60.2002 299.22 57.6502C301.22 56.9402 303.3 56.9902 305.36 57.4102C308.07 57.9602 309.96 59.7502 311.71 61.7302C315.33 65.8402 318.79 70.0802 322.07 74.4802C327.68 82.0002 332.66 89.9102 337.02 98.2102C341.56 106.85 345.42 115.79 348.46 125.07C348.78 126.04 348.96 127.09 349.6 127.93L349.64 127.96ZM228.22 182.35C227.86 152.82 204.44 129.46 175.13 129.46C145.25 129.46 121.91 153.29 121.98 182.68C122.06 212.22 145.64 235.52 174.88 235.62C204.36 235.72 228.05 212.19 228.22 182.35Z" fill="black"/>
</g>
<defs>
<clipPath id="clip0_37_444">
<rect width="349.14" height="364.07" fill="white" transform="translate(0.5 0.5)"/>
</clipPath>
</defs>
</svg>
